<svg width="19" height="20" viewBox="0 0 19 20" fill="none" xmlns="http://www.w3.org/2000/svg">
<path d="M8.95409 6.96498C10.1141 7.02351 10.4132 8.08679 10.4313 8.58429H12.0536C11.9811 6.65282 10.7032 5.47248 8.92691 5.47248C6.92402 5.47248 5.43771 6.82841 5.43771 9.89144C5.43771 11.7839 6.28055 14.0275 8.91784 14.0275C10.9298 14.0275 12.0083 12.418 12.0355 11.1498H10.4132C10.386 11.7254 10.0054 12.496 8.93597 12.5545C7.74874 12.5155 7.25028 11.5205 7.25028 9.89144C7.25028 7.07228 8.41032 6.98449 8.95409 6.96498ZM9.06285 0C4.06016 0 0 4.37018 0 9.75487C0 15.1396 4.06016 19.5097 9.06285 19.5097C14.0655 19.5097 18.1257 15.1396 18.1257 9.75487C18.1257 4.37018 14.0655 0 9.06285 0ZM9.06285 17.5588C5.06613 17.5588 1.81257 14.0568 1.81257 9.75487C1.81257 5.45297 5.06613 1.95097 9.06285 1.95097C13.0596 1.95097 16.3131 5.45297 16.3131 9.75487C16.3131 14.0568 13.0596 17.5588 9.06285 17.5588Z" fill="white"/>
</svg>
